HIERARCHY
ROOT Pelvis
{
	OFFSET 0.000000 0.000000 0.000000
	CHANNELS 6 Xposition Yposition Zposition Zrotation Yrotation Xrotation 
	JOINT Left_hip
	{
		OFFSET 0.069463 -0.088608 -0.009542
		CHANNELS 3 Zrotation Yrotation Xrotation
		JOINT Left_knee
		{
			OFFSET 0.030639 -0.359740 -0.005288
			CHANNELS 3 Zrotation Yrotation Xrotation
			JOINT Left_ankle
			{
				OFFSET -0.011068 -0.376034 -0.042462
				CHANNELS 3 Zrotation Yrotation Xrotation
				JOINT Left_foot
				{
					OFFSET 0.023192 -0.053321 0.111332
					CHANNELS 3 Zrotation Yrotation Xrotation
					End Site
					{
						OFFSET 0.000000 0.000000 0.000000
					}
				}
			}
		}
	}
	JOINT Right_hip
	{
		OFFSET -0.067438 -0.088025 -0.006263
		CHANNELS 3 Zrotation Yrotation Xrotation
		JOINT Right_knee
		{
			OFFSET -0.035962 -0.366229 -0.008063
			CHANNELS 3 Zrotation Yrotation Xrotation
			JOINT Right_ankle
			{
				OFFSET 0.013608 -0.375719 -0.040481
				CHANNELS 3 Zrotation Yrotation Xrotation
				JOINT Right_foot
				{
					OFFSET -0.021034 -0.045527 0.114617
					CHANNELS 3 Zrotation Yrotation Xrotation
					End Site
					{
						OFFSET 0.000000 0.000000 0.000000
					}
				}
			}
		}
	}
	JOINT Spine1
	{
		OFFSET -0.002610 0.101823 -0.019986
		CHANNELS 3 Zrotation Yrotation Xrotation
		JOINT Spine2
		{
			OFFSET 0.004114 0.128714 -0.000938
			CHANNELS 3 Zrotation Yrotation Xrotation
			JOINT Spine3
			{
				OFFSET 0.002191 0.048470 0.027684
				CHANNELS 3 Zrotation Yrotation Xrotation
				JOINT Neck
				{
					OFFSET -0.002856 0.198873 -0.044022
					CHANNELS 3 Zrotation Yrotation Xrotation
					JOINT Head
					{
						OFFSET 0.002981 0.062960 0.049860
						CHANNELS 3 Zrotation Yrotation Xrotation
						End Site
						{
							OFFSET 0.000000 0.000000 0.000000
						}
					}
				}
				JOINT Left_collar
				{
					OFFSET 0.073708 0.112550 -0.033440
					CHANNELS 3 Zrotation Yrotation Xrotation
					JOINT Left_shoulder
					{
						OFFSET 0.083291 0.030786 -0.008013
						CHANNELS 3 Zrotation Yrotation Xrotation
						JOINT Left_elbow
						{
							OFFSET 0.245601 -0.011792 -0.027873
							CHANNELS 3 Zrotation Yrotation Xrotation
							JOINT Left_wrist
							{
								OFFSET 0.232258 0.008622 -0.000487
								CHANNELS 3 Zrotation Yrotation Xrotation
								JOINT Left_palm
								{
									OFFSET 0.077300 -0.009457 -0.012851
									CHANNELS 3 Zrotation Yrotation Xrotation
									End Site
									{
										OFFSET 0.000000 0.000000 0.000000
									}
								}
							}
						}
					}
				}
				JOINT Right_collar
				{
					OFFSET -0.075339 0.110574 -0.037874
					CHANNELS 3 Zrotation Yrotation Xrotation
					JOINT Right_shoulder
					{
						OFFSET -0.086522 0.031207 -0.009986
						CHANNELS 3 Zrotation Yrotation Xrotation
						JOINT Right_elbow
						{
							OFFSET -0.237313 -0.011478 -0.019859
							CHANNELS 3 Zrotation Yrotation Xrotation
							JOINT Right_wrist
							{
								OFFSET -0.237599 0.007976 -0.003742
								CHANNELS 3 Zrotation Yrotation Xrotation
								JOINT Right_palm
								{
									OFFSET -0.076920 -0.006943 -0.009920
									CHANNELS 3 Zrotation Yrotation Xrotation
									End Site
									{
										OFFSET 0.000000 0.000000 0.000000
									}
								}
							}
						}
					}
				}
			}
		}
	}
}
MOTION
Frames: 5
Frame Time: 0.100000
0.000000 0.000000 0.000000 177.059991 26.937590 -17.613974 1.629244 3.863308 5.874086 0.615522 -4.921359 1.128829 0.300763 7.735044 -2.863509 -2.787829 7.986159 -2.328339 -1.427321 -3.012503 7.675311 -1.939392 -3.724552 0.011908 -6.391286 -6.720037 -5.271233 14.403110 -9.760101 11.141251 -0.141551 1.044607 -1.853304 2.758279 -5.089593 13.692206 -0.675276 -0.999081 -9.466606 -5.104279 -10.722188 17.432117 0.927446 -12.560302 -8.340120 -30.078368 0.022969 2.343673 -55.073342 -2.221145 21.891590 5.175861 -10.652609 2.591058 -12.828577 -8.477359 13.118107 -13.132040 -7.410555 -14.858912 31.018252 7.383805 3.345445 51.851682 -2.708899 16.191181 -6.190988 12.943100 -3.180787 7.005207 9.624520 0.975809 15.170864 6.985280 -3.742714 
0.001529 -0.000006 0.000334 177.019973 27.099979 -17.962014 1.702760 3.857753 6.318423 0.654025 -5.019439 1.017765 0.263864 7.699201 -2.908270 -2.805899 8.026312 -2.294059 -1.397434 -3.038229 8.209344 -1.905708 -3.859052 -0.170872 -6.551859 -6.557595 -5.237645 14.650231 -10.209389 10.938688 -0.185374 1.118238 -1.783278 2.750204 -5.006110 13.972566 -0.502974 -0.925861 -9.445011 -4.724451 -11.022341 17.065417 1.544033 -12.588886 -9.255042 -30.132725 -0.372565 2.652215 -54.977722 -2.302951 21.773163 5.178581 -11.259578 2.847848 -12.879481 -8.795062 12.729200 -13.032467 -7.186751 -15.146419 30.800156 7.884063 3.704479 52.157866 -2.720427 16.104392 -5.962662 13.024637 -3.404071 7.077516 9.904987 -0.459238 14.825192 6.734707 -3.684643 
0.003480 0.000466 -0.000231 176.956577 27.244940 -18.120480 1.787583 3.780847 6.128100 0.642740 -5.090417 1.378043 0.317495 7.689215 -3.047991 -2.807967 8.030266 -2.155262 -1.296857 -3.015295 8.157374 -1.884853 -3.911619 0.025292 -6.846784 -6.594951 -5.345407 14.967683 -10.338521 10.911618 -0.285513 1.205660 -1.482233 2.886716 -5.009317 14.228933 -0.367944 -0.888872 -9.645799 -4.234044 -11.335346 16.452404 1.971755 -12.661212 -9.616186 -30.473703 -0.645919 2.671365 -54.597327 -2.389383 21.852805 5.103769 -11.595148 2.933792 -12.746150 -8.827395 12.899173 -12.942306 -7.152156 -14.998163 31.090901 8.152039 3.764636 51.728143 -2.686506 16.095411 -5.997149 12.932736 -3.431340 7.070407 9.896240 -0.299689 14.664759 6.716730 -3.541968 
0.004878 0.000847 -0.000602 176.922804 27.288186 -18.088039 1.886735 3.768359 5.902637 0.625532 -5.146372 1.512054 0.451637 7.663952 -3.174920 -2.908709 8.084074 -1.857293 -1.201248 -3.050128 7.909756 -1.856985 -3.870844 0.209491 -7.304713 -6.572548 -5.469402 15.619679 -10.516824 10.961350 -0.342796 1.253140 -1.351352 3.111416 -5.095495 14.697358 -0.285847 -0.903340 -10.102152 -3.699086 -11.597800 15.625743 2.333495 -12.706814 -10.203301 -31.203889 -0.672030 2.512701 -53.996005 -2.182630 21.960147 5.037526 -11.648447 2.639958 -12.656089 -8.726098 13.160877 -12.899698 -7.266540 -14.744484 31.738612 8.111916 3.645095 50.849837 -2.899159 16.096538 -6.164526 13.210399 -3.634021 7.048580 9.887802 0.162351 14.723437 6.830728 -3.393119 
0.005828 0.000951 -0.000627 177.080024 27.166136 -18.066634 1.887246 3.896725 6.148275 0.602744 -5.137299 1.240736 0.445303 7.632820 -3.104001 -2.960277 8.147316 -1.885760 -1.261092 -3.000698 8.017586 -1.871007 -3.792677 0.125037 -7.255236 -6.500088 -5.506854 15.513239 -10.621630 10.886147 -0.244410 1.155516 -1.284263 3.116185 -5.145453 14.535984 -0.251152 -0.981180 -10.015455 -3.614759 -11.595613 15.503113 2.409290 -12.561673 -10.541690 -31.221039 -0.493267 2.513168 -54.195783 -1.996920 21.726858 5.197744 -11.477619 2.413262 -12.706513 -8.628521 12.856645 -12.909182 -7.234607 -14.798661 31.554684 7.846098 3.494026 51.077838 -3.066832 15.968433 -6.460107 13.584106 -3.862584 7.055150 9.902582 -0.162621 14.734788 6.786744 -3.399791 
